<svg xmlns="http://www.w3.org/2000/svg" viewBox="0 0 1920 620" preserveAspectRatio="xMidYMid slice">
  <defs>
    <linearGradient id="sky" x1="0" y1="0" x2="1" y2="1">
      <stop offset="0" stop-color="#fffaf0"/>
      <stop offset="0.45" stop-color="#f8e7bd"/>
      <stop offset="1" stop-color="#0a4a3f"/>
    </linearGradient>
    <radialGradient id="sun" cx="50%" cy="18%" r="42%">
      <stop offset="0" stop-color="#fffdf4" stop-opacity="1"/>
      <stop offset="0.18" stop-color="#ffe29a" stop-opacity="0.95"/>
      <stop offset="0.48" stop-color="#d89c37" stop-opacity="0.32"/>
      <stop offset="1" stop-color="#d89c37" stop-opacity="0"/>
    </radialGradient>
    <radialGradient id="greenGlow" cx="78%" cy="55%" r="55%">
      <stop offset="0" stop-color="#0b5747" stop-opacity="0.42"/>
      <stop offset="1" stop-color="#0b5747" stop-opacity="0"/>
    </radialGradient>
    <filter id="soft" x="-20%" y="-20%" width="140%" height="140%">
      <feGaussianBlur stdDeviation="20"/>
    </filter>
  </defs>
  <rect width="1920" height="620" fill="url(#sky)"/>
  <rect width="1920" height="620" fill="url(#sun)"/>
  <rect width="1920" height="620" fill="url(#greenGlow)"/>
  <g opacity="0.34" filter="url(#soft)">
    <circle cx="1180" cy="120" r="170" fill="#fff8df"/>
    <circle cx="1490" cy="380" r="230" fill="#134c42"/>
    <circle cx="1710" cy="230" r="150" fill="#d6a24a"/>
  </g>
  <g opacity="0.18" fill="none" stroke="#f8e9bd" stroke-width="2">
    <path d="M1020 472c120-120 240-120 360 0"/>
    <path d="M1120 476c78-88 156-88 234 0"/>
    <path d="M1224 476c42-54 84-54 126 0"/>
  </g>
  <g transform="translate(1270 245)" opacity="0.28">
    <path d="M0 165c90-118 180-118 270 0-90 50-180 50-270 0Z" fill="#fff5d4"/>
    <path d="M80 160c45-140 110-140 155 0-52 28-103 28-155 0Z" fill="#f0c66e"/>
    <path d="M-100 175c72-72 146-72 220 0-73 44-146 44-220 0Z" fill="#0b5747" opacity="0.55"/>
    <path d="M150 176c75-75 150-75 225 0-75 44-150 44-225 0Z" fill="#0b5747" opacity="0.55"/>
  </g>
  <path d="M0 500c210-45 405-40 610 12 196 50 390 42 580-20 260-84 500-72 730 35v93H0Z" fill="#fffaf1" opacity="0.42"/>
  <path d="M0 562c285-44 566-28 843 22 309 56 675 38 1077-56v92H0Z" fill="#fffaf1" opacity="0.72"/>
</svg>
